<?xml version='1.0' encoding='iso-8859-1'?>
<svg version="1.1" xmlns="http://www.w3.org/2000/svg" viewBox="0 0 463 463" xmlns:xlink="http://www.w3.org/1999/xlink" enable-background="new 0 0 463 463">
  <g>
    <path d="m135.5,296c-12.958,0-23.5,10.542-23.5,23.5s10.542,23.5 23.5,23.5 23.5-10.542 23.5-23.5-10.542-23.5-23.5-23.5zm0,32c-4.687,0-8.5-3.813-8.5-8.5s3.813-8.5 8.5-8.5 8.5,3.813 8.5,8.5-3.813,8.5-8.5,8.5z"/>
    <path d="m359.5,296c-12.958,0-23.5,10.542-23.5,23.5s10.542,23.5 23.5,23.5 23.5-10.542 23.5-23.5-10.542-23.5-23.5-23.5zm0,32c-4.687,0-8.5-3.813-8.5-8.5s3.813-8.5 8.5-8.5 8.5,3.813 8.5,8.5-3.813,8.5-8.5,8.5z"/>
    <path d="m455,281.945v-57.794c0-6.986-1.86-13.868-5.38-19.903l-42.38-72.652c-7.052-12.087-20.126-19.596-34.12-19.596h-53.62c-8.547,0-15.5,6.953-15.5,15.5v136.5h-17v-152.5c0-12.958-10.542-23.5-23.5-23.5h-240c-12.958,0-23.5,10.542-23.5,23.5v192c0,12.958 10.542,23.5 23.5,23.5h57.021c3.675,27.067 26.921,48 54.979,48s51.305-20.933 54.979-48h114.041c3.675,27.067 26.921,48 54.979,48s51.305-20.933 54.979-48h33.022c8.547,0 15.5-6.953 15.5-15.5v-16c0-5.827-3.235-10.908-8-13.555zm-23.5-1.945c-8.547,0-15.5,6.953-15.5,15.5v16.5h-1.521c-3.675-27.067-26.921-48-54.979-48-15.964,0-30.366,6.784-40.5,17.61v-58.61h62.559c4.407,0 8.551,1.716 11.667,4.833l9.941,9.941c5.949,5.95 13.86,9.226 22.273,9.226h14.56v33h-8.5zm8.5-55.849v7.849h-14.559c-4.407,0-8.551-1.716-11.667-4.833l-9.941-9.941c-5.949-5.95-13.86-9.226-22.273-9.226h-62.56v-49h86.859l30.804,52.806c2.183,3.743 3.337,8.012 3.337,12.345zm-120.5-97.151h53.62c8.68,0 16.789,4.658 21.163,12.155l2.826,4.845h-78.109v-16.5c0-0.276 0.224-0.5 0.5-0.5zm-15.5,152v33h-17v-33h17zm-289-32h17v24.5c0,4.687-3.813,8.5-8.5,8.5h-8.5v-33zm0,56.5v-8.5h8.5c12.958,0 23.5-10.542 23.5-23.5v-32c0-4.142-3.358-7.5-7.5-7.5h-24.5v-120.5c0-4.687 3.813-8.5 8.5-8.5h240c4.687,0 8.5,3.813 8.5,8.5v200.5h-81.521c-3.675-27.067-26.921-48-54.979-48s-51.305,20.933-54.979,48h-57.021c-4.687,0-8.5-3.813-8.5-8.5zm120.5,56.5c-22.323,0-40.485-18.155-40.499-40.474 0-0.009 0.001-0.017 0.001-0.026s-0.001-0.017-0.001-0.026c0.014-22.319 18.176-40.474 40.499-40.474 22.332,0 40.5,18.168 40.5,40.5s-18.168,40.5-40.5,40.5zm224,0c-22.332,0-40.5-18.168-40.5-40.5s18.168-40.5 40.5-40.5 40.5,18.168 40.5,40.5-18.168,40.5-40.5,40.5zm88.5-48.5c0,0.276-0.224,0.5-0.5,0.5h-16.5v-16.5c0-0.276 0.224-0.5 0.5-0.5h16c0.276,0 0.5,0.224 0.5,0.5v16z"/>
    <path d="m213.394,183l-27.197,27.197c-2.929,2.929-2.929,7.678 0,10.606 1.464,1.464 3.384,2.197 5.303,2.197s3.839-0.732 5.303-2.197l40-40c0.149-0.149 0.285-0.306 0.419-0.464 0.024-0.028 0.05-0.053 0.073-0.081 0.214-0.259 0.401-0.532 0.575-0.811 0.036-0.057 0.069-0.116 0.103-0.174 0.169-0.29 0.323-0.586 0.45-0.891 0.002-0.004 0.004-0.008 0.006-0.012 0-0.001 0.001-0.002 0.001-0.004 0.131-0.317 0.233-0.641 0.319-0.97 0.018-0.068 0.034-0.135 0.05-0.203 0.075-0.323 0.136-0.649 0.167-0.979 0-0.005 0-0.009 0.001-0.014 0.03-0.32 0.032-0.641 0.021-0.961-0.003-0.078-0.006-0.155-0.011-0.232-0.021-0.324-0.057-0.647-0.12-0.966-0.001-0.007-0.004-0.014-0.005-0.022-0.063-0.316-0.153-0.626-0.257-0.933-0.021-0.061-0.041-0.122-0.064-0.182-0.227-0.615-0.537-1.204-0.93-1.754-0.045-0.063-0.09-0.125-0.137-0.186-0.202-0.265-0.417-0.524-0.66-0.767l-40-40c-2.929-2.929-7.678-2.929-10.606,0-2.929,2.929-2.929,7.678 0,10.606l27.196,27.197h-157.894c-4.142,0-7.5,3.358-7.5,7.5s3.358,7.5 7.5,7.5h157.894z"/>
  </g>
</svg>
