<?xml version='1.0' encoding='iso-8859-1'?>
<!DOCTYPE svg PUBLIC '-//W3C//DTD SVG 1.1//EN' 'http://www.w3.org/Graphics/SVG/1.1/DTD/svg11.dtd'>
<svg version="1.1" xmlns="http://www.w3.org/2000/svg" viewBox="0 0 315.012 315.012" xmlns:xlink="http://www.w3.org/1999/xlink" enable-background="new 0 0 315.012 315.012">
  <g>
    <path d="m178.071,100.657h-59c-5.109,0-9.25,4.141-9.25,9.25 0,19.831-0.13,19.006 0.371,20.735 13.825,3.553 21.229,17.094 17.936,29.906-2.306,8.974-9.455,15.775-18.308,17.784v9.309h68.25c3.688,0 6.862-2.163 8.347-5.285-5.283-5.77-7.79-13.921-6.019-22.152 0.784-3.644 6.1-28.351 6.922-32.174v-18.124c0.001-5.108-4.14-9.249-9.249-9.249z"/>
    <path d="m187.321,59.578c0-5.109-4.141-9.25-9.25-9.25h-59c-5.109,0-9.25,4.141-9.25,9.25v18.157c0,5.109 4.141,9.25 9.25,9.25h59c5.109,0 9.25-4.141 9.25-9.25v-18.157z"/>
    <path d="m178.071,0h-59c-5.109,0-9.25,4.141-9.25,9.25v18.156c0,5.109 4.141,9.25 9.25,9.25h59c5.109,0 9.25-4.141 9.25-9.25v-18.156c0-5.109-4.141-9.25-9.25-9.25z"/>
    <path d="m306.174,233.57c0.584-2.758 0.379-5.625-0.592-8.272l-14.083-38.396v-97.543c0-10.738-7.835-19.442-17.5-19.442h-31.209c-7.993,0-14.719,5.959-16.814,14.091l8.89,.672-25.087,16.02c-2.813,1.796-4.791,4.643-5.493,7.906l-11.667,54.228c-1.452,6.749 2.843,13.397 9.592,14.85 6.757,1.453 13.399-2.849 14.85-9.592l10.569-49.128 20.691-13.213-8.149,14.348-10.891,50.622c-0.729,3.389-2.114,6.468-3.992,9.133 0,11.757 0.283,2.314-1.87,53.779l-24.993,60.661c-3.155,7.659 0.495,16.427 8.155,19.583 7.653,3.155 16.425-0.492 19.583-8.155l26-63.105c0.666-1.617 1.045-3.339 1.118-5.087 1.261-30.127 1.733-41.294 1.906-45.52 0.066-1.618 1.397-2.898 3.016-2.898h0.002c1.29,0 2.444,0.805 2.888,2.017l14.836,40.448-13.835,65.324c-1.716,8.104 3.463,16.065 11.567,17.782 8.105,1.715 16.065-3.464 17.782-11.567l14.73-69.546z"/>
    <circle cx="258.53" cy="35.156" r="25.907"/>
    <circle cx="52.752" cy="35.156" r="25.907"/>
    <path d="m116.214,158.533c2.389-6.934-1.651-14.379-8.703-16.191l-41.878-10.764-11.75-33.763 19.174,23.281 12.665,3.255v-34.492c0-10.738-7.835-19.442-17.501-19.442h-31.209c-9.665,0-17.501,8.705-17.501,19.442v99.753h0.03c0.059,1.709-0.402-1.282 7.27,41.653l-17.76,64.777c-2.19,7.989 2.51,16.241 10.5,18.432 7.985,2.192 16.242-2.51 18.432-10.5l18.656-68.046c0.59-2.151 0.692-4.407 0.301-6.605l-6.55-36.657c-0.135-0.757 0.072-1.535 0.565-2.124 0.494-0.589 1.223-0.93 1.992-0.93 1.09,0 2.063,0.68 2.439,1.703l14.768,40.262-13.835,65.324c-1.716,8.104 3.463,16.065 11.567,17.782 8.105,1.715 16.065-3.464 17.782-11.567l14.729-69.546c0.584-2.758 0.379-5.625-0.592-8.272l-14.083-38.396v-11.957l-35.789-9.199c-10.774-2.77-17.514-12.239-18.156-18.37 0,0-0.252-39.221 0-38.496l12.449,37.246c1.351,3.879 4.569,6.938 8.694,7.998l48.369,12.432c6.331,1.627 12.817-1.903 14.925-8.023z"/>
  </g>
</svg>
