<?xml version='1.0' encoding='iso-8859-1'?>
<svg version="1.1" xmlns="http://www.w3.org/2000/svg" viewBox="0 0 463 463" xmlns:xlink="http://www.w3.org/1999/xlink" enable-background="new 0 0 463 463">
  <g>
    <path d="m207.5,132.183c-4.143,0-7.5,3.358-7.5,7.5v2.601c0,1.076-0.69,2.042-1.679,2.349l-114.12,35.479c-7.313,2.273-12.226,8.974-12.226,16.672v32.453 7.349 0.228c0,7.699 4.913,14.398 12.226,16.672 0.741,0.23 1.491,0.34 2.229,0.34 3.198,0 6.16-2.061 7.16-5.275 1.229-3.955-0.98-8.159-4.936-9.388-0.988-0.308-1.679-1.273-1.679-2.349v-0.228c0-1.076 0.69-2.042 1.679-2.349l30.83-9.585 78.837,24.511c0.988,0.307 1.679,1.273 1.679,2.349v0.228c0,1.076-0.69,2.041-1.679,2.349l-114.12,35.48c-7.313,2.273-12.226,8.973-12.226,16.672v32.453 7.35 0.227c0,7.699 4.913,14.399 12.226,16.672 0.741,0.23 1.491,0.34 2.229,0.34 3.198,0 6.16-2.061 7.16-5.275 1.229-3.955-0.98-8.159-4.936-9.388-0.988-0.308-1.679-1.273-1.679-2.349v-0.227c0-1.076 0.69-2.042 1.679-2.349l30.83-9.585 78.837,24.511c0.988,0.307 1.679,1.273 1.679,2.349v0.227c0,1.076-0.69,2.042-1.679,2.349l-114.12,35.479c-7.313,2.273-12.226,8.974-12.226,16.672v39.803c0,4.142 3.357,7.5 7.5,7.5s7.5-3.358 7.5-7.5c0-1.075 0.69-2.041 1.679-2.349l114.12-35.479c7.313-2.274 12.226-8.973 12.226-16.672 0-0.038-0.005-0.075-0.006-0.114 0.001-0.038 0.006-0.075 0.006-0.114v-39.802c0-7.699-4.913-14.399-12.226-16.672l-58.029-18.041 58.029-18.041c7.313-2.274 12.226-8.974 12.226-16.672 0-0.038-0.005-0.075-0.006-0.114 0.001-0.038 0.006-0.075 0.006-0.114v-39.802c0-7.699-4.913-14.399-12.226-16.673l-58.027-18.041 58.028-18.041c7.313-2.273 12.226-8.974 12.226-16.673v-42.403c-0.001-4.142-3.358-7.5-7.501-7.5zm-9.179,271.165l-111.345,34.617v-22.268c0-1.076 0.69-2.042 1.679-2.349l111.345-34.616v22.04c0,0.038 0.005,0.075 0.006,0.114-0.001,0.038-0.006,0.075-0.006,0.114 0,1.075-0.69,2.041-1.679,2.348zm0-109.456l-80.223,24.941c-0.641,0.111-1.261,0.306-1.847,0.574l-29.276,9.102v-22.268c0-1.075 0.69-2.041 1.679-2.348l111.346-34.617v22.04c0,0.038 0.005,0.075 0.006,0.114-0.001,0.038-0.006,0.075-0.006,0.114 0,1.075-0.69,2.04-1.679,2.348zm1.679-111.806c0,1.076-0.69,2.042-1.679,2.349l-80.228,24.943c-0.638,0.111-1.254,0.304-1.838,0.571l-29.281,9.103v-22.267c0-1.076 0.69-2.042 1.679-2.349l111.347-34.617v22.267z"/>
    <path d="m125.212,266.237c0.741,0.23 1.491,0.34 2.229,0.34 3.198,0 6.161-2.062 7.16-5.275 1.229-3.956-0.98-8.159-4.936-9.389l-15.974-4.966c-3.956-1.229-8.159,0.981-9.389,4.936-1.229,3.956 0.98,8.159 4.936,9.389l15.974,4.965z"/>
    <path d="m125.18,375.684c0.741,0.231 1.491,0.34 2.229,0.34 3.198,0 6.16-2.062 7.16-5.275 1.229-3.955-0.98-8.159-4.936-9.388l-15.961-4.962c-3.955-1.229-8.158,0.98-9.389,4.935-1.229,3.955 0.98,8.159 4.936,9.388l15.961,4.962z"/>
    <path d="m301.212,134.055c0.741,0.23 1.491,0.34 2.229,0.34 3.198,0 6.161-2.062 7.16-5.275 1.229-3.956-0.98-8.159-4.936-9.389l-15.974-4.966c-3.957-1.229-8.159,0.981-9.389,4.936-1.229,3.956 0.98,8.159 4.936,9.389l15.974,4.965z"/>
    <path d="m301.18,243.501c0.741,0.23 1.491,0.34 2.229,0.34 3.198,0 6.161-2.062 7.16-5.275 1.229-3.956-0.98-8.159-4.936-9.389l-15.961-4.962c-3.955-1.229-8.159,0.981-9.389,4.936-1.229,3.956 0.98,8.159 4.936,9.389l15.961,4.961z"/>
    <path d="m391,268.816c0-0.038-0.005-0.075-0.006-0.114 0.001-0.038 0.006-0.075 0.006-0.114v-39.802c0-7.699-4.913-14.399-12.226-16.672l-58.029-18.041 58.029-18.041c7.313-2.273 12.226-8.972 12.226-16.672 0-0.038-0.005-0.075-0.006-0.114 0.001-0.038 0.006-0.075 0.006-0.114v-39.802c0-7.699-4.913-14.399-12.226-16.673l-58.029-18.041 58.029-18.041c7.313-2.272 12.226-8.972 12.226-16.671v-42.404c0-4.142-3.357-7.5-7.5-7.5s-7.5,3.358-7.5,7.5v2.602c0,1.076-0.69,2.041-1.679,2.349l-114.12,35.48c-7.313,2.273-12.226,8.973-12.226,16.672v32.453 7.35 0.227c0,7.699 4.913,14.399 12.226,16.672 0.741,0.231 1.491,0.34 2.229,0.34 3.198,0 6.16-2.061 7.16-5.275 1.229-3.955-0.98-8.159-4.936-9.388-0.988-0.308-1.679-1.273-1.679-2.349v-0.227c0-1.076 0.69-2.042 1.679-2.349l30.829-9.585 78.838,24.511c0.988,0.307 1.679,1.273 1.679,2.349v0.227c0,1.076-0.69,2.042-1.679,2.349l-114.12,35.48c-7.313,2.273-12.226,8.974-12.226,16.672v32.453 7.349 0.228c0,7.699 4.913,14.398 12.226,16.672 0.741,0.23 1.491,0.34 2.229,0.34 3.198,0 6.16-2.061 7.16-5.275 1.229-3.955-0.98-8.159-4.936-9.388-0.988-0.308-1.679-1.273-1.679-2.349v-0.228c0-1.075 0.69-2.041 1.679-2.349l30.829-9.585 78.838,24.511c0.988,0.307 1.679,1.273 1.679,2.348v0.228c0,1.076-0.69,2.042-1.679,2.349l-114.12,35.479c-7.313,2.273-12.226,8.974-12.226,16.672v39.802c0,4.142 3.357,7.5 7.5,7.5s7.5-3.358 7.5-7.5c0-1.076 0.69-2.042 1.679-2.349l114.12-35.479c7.313-2.273 12.226-8.973 12.226-16.673zm-128.024-181.946v-22.268c0-1.075 0.69-2.041 1.679-2.349l111.345-34.617v22.268c0,1.076-0.69,2.041-1.679,2.349l-80.229,24.943c-0.637,0.111-1.253,0.304-1.835,0.571l-29.281,9.103zm0,109.456v-22.268c0-1.076 0.69-2.042 1.679-2.349l111.345-34.616v22.04c0,0.038 0.005,0.075 0.006,0.114-0.001,0.038-0.006,0.075-0.006,0.114 0,1.076-0.69,2.041-1.679,2.348l-80.229,24.943c-0.637,0.111-1.252,0.304-1.835,0.571l-29.281,9.103zm111.345,74.84l-111.346,34.617v-22.267c0-1.076 0.69-2.042 1.679-2.349l111.346-34.617v22.039c0,0.038 0.005,0.075 0.006,0.114-0.001,0.038-0.006,0.075-0.006,0.114 0,1.075-0.69,2.041-1.679,2.349z"/>
    <path d="m87.5,79c22.332,0 40.5,18.168 40.5,40.5 0,4.142 3.357,7.5 7.5,7.5s7.5-3.358 7.5-7.5c0-22.332 18.168-40.5 40.5-40.5 4.143,0 7.5-3.358 7.5-7.5s-3.357-7.5-7.5-7.5c-22.332,0-40.5-18.168-40.5-40.5 0-4.142-3.357-7.5-7.5-7.5s-7.5,3.358-7.5,7.5c0,22.332-18.168,40.5-40.5,40.5-4.143,0-7.5,3.358-7.5,7.5s3.357,7.5 7.5,7.5zm48-27.661c4.855,8.339 11.821,15.306 20.161,20.161-8.34,4.855-15.306,11.822-20.161,20.161-4.855-8.339-11.821-15.306-20.161-20.161 8.34-4.855 15.306-11.822 20.161-20.161z"/>
    <path d="m375.5,376c-22.332,0-40.5-18.168-40.5-40.5 0-4.142-3.357-7.5-7.5-7.5s-7.5,3.358-7.5,7.5c0,22.332-18.168,40.5-40.5,40.5-4.143,0-7.5,3.358-7.5,7.5s3.357,7.5 7.5,7.5c22.332,0 40.5,18.168 40.5,40.5 0,4.142 3.357,7.5 7.5,7.5s7.5-3.358 7.5-7.5c0-22.332 18.168-40.5 40.5-40.5 4.143,0 7.5-3.358 7.5-7.5s-3.357-7.5-7.5-7.5zm-48,27.661c-4.855-8.339-11.821-15.306-20.161-20.161 8.34-4.855 15.306-11.822 20.161-20.161 4.855,8.339 11.821,15.306 20.161,20.161-8.34,4.855-15.306,11.822-20.161,20.161z"/>
    <path d="m415.5,328h-8.5v-8.5c0-4.142-3.357-7.5-7.5-7.5s-7.5,3.358-7.5,7.5v8.5h-8.5c-4.143,0-7.5,3.358-7.5,7.5s3.357,7.5 7.5,7.5h8.5v8.5c0,4.142 3.357,7.5 7.5,7.5s7.5-3.358 7.5-7.5v-8.5h8.5c4.143,0 7.5-3.358 7.5-7.5s-3.357-7.5-7.5-7.5z"/>
    <path d="m79.5,151c4.143,0 7.5-3.358 7.5-7.5s-3.357-7.5-7.5-7.5h-8.5v-8.5c0-4.142-3.357-7.5-7.5-7.5s-7.5,3.358-7.5,7.5v8.5h-8.5c-4.143,0-7.5,3.358-7.5,7.5s3.357,7.5 7.5,7.5h8.5v8.5c0,4.142 3.357,7.5 7.5,7.5s7.5-3.358 7.5-7.5v-8.5h8.5z"/>
  </g>
</svg>
