<?xml version='1.0' encoding='iso-8859-1'?>
<svg version="1.1" xmlns="http://www.w3.org/2000/svg" viewBox="0 0 470.001 470.001" xmlns:xlink="http://www.w3.org/1999/xlink" enable-background="new 0 0 470.001 470.001">
  <g>
    <path d="m242.5,417.133c0-10.596 3.439-14.942 9.684-22.836 8.076-10.209 19.138-24.189 19.138-50.023 0-25.833-11.062-39.813-19.14-50.022-6.243-7.89-9.682-12.235-9.682-22.828s3.439-14.939 9.686-22.835c8.076-10.207 19.136-24.187 19.136-50.017 0-25.832-11.062-39.813-19.141-50.022-6.242-7.89-9.681-12.236-9.681-22.827 0-10.594 3.439-14.939 9.684-22.831 8.076-10.209 19.138-24.189 19.138-50.021 0-25.785-11.022-39.761-19.096-49.964-0.016-0.021-0.031-0.04-0.047-0.06-2.571-3.248-7.287-3.798-10.534-1.228l-11.3,8.94c-0.043,0.035-0.086,0.069-0.128,0.104l-11.172,8.842c-3.248,2.57-3.797,7.287-1.227,10.535 6.244,7.89 9.683,12.236 9.683,22.829 0,10.595-3.439,14.94-9.687,22.836-8.075,10.208-19.134,24.188-19.134,50.017 0,25.832 11.061,39.812 19.14,50.021 6.243,7.89 9.681,12.236 9.681,22.828 0,10.594-3.439,14.939-9.684,22.832-8.076,10.208-19.137,24.188-19.137,50.02 0,25.832 11.062,39.812 19.139,50.02 6.243,7.892 9.682,12.238 9.682,22.831 0,10.595-3.439,14.941-9.683,22.835-8.077,10.209-19.138,24.189-19.138,50.024s11.059,39.813 19.134,50.02c1.481,1.871 3.674,2.848 5.889,2.848 1.629,0 3.271-0.528 4.647-1.618l22.603-17.882c1.56-1.234 2.565-3.037 2.796-5.014 0.23-1.976-0.333-3.962-1.567-5.521-6.243-7.89-9.682-12.237-9.682-22.833zm-6.643,26.184l-10.849,8.583c-5.956-8.202-11.328-18.322-11.328-34.767 0-20.619 8.448-31.297 15.903-40.72 6.931-8.762 12.917-16.329 12.917-32.14 0-15.81-5.986-23.376-12.919-32.138-7.453-9.421-15.901-20.098-15.901-40.713s8.447-31.293 15.901-40.714c6.932-8.762 12.919-16.327 12.919-32.138 0-15.809-5.986-23.374-12.92-32.139-7.453-9.419-15.9-20.096-15.9-40.711 0-20.613 8.446-31.29 15.901-40.714 6.933-8.761 12.92-16.328 12.92-32.139 0-12.184-3.556-19.471-8.359-26.183l10.847-8.585c5.958,8.203 11.334,18.324 11.334,34.768 0,20.615-8.448,31.294-15.902,40.715-6.932,8.762-12.919,16.327-12.919,32.138 0,15.808 5.986,23.373 12.92,32.137 7.453,9.42 15.901,20.098 15.901,40.713 0,20.613-8.447,31.29-15.902,40.714-6.932,8.762-12.919,16.328-12.919,32.138s5.987,23.375 12.919,32.136c7.454,9.421 15.902,20.099 15.902,40.715 0,20.617-8.448,31.296-15.902,40.718-6.932,8.763-12.919,16.33-12.919,32.142-0.002,12.185 3.553,19.473 8.355,26.184z"/>
    <path d="m129.655,198.572c0-25.832-11.062-39.813-19.139-50.021-6.243-7.891-9.682-12.236-9.682-22.828 0-10.593 3.439-14.939 9.683-22.831 8.077-10.209 19.138-24.189 19.138-50.021 0-25.834-11.063-39.813-19.14-50.021-0.186-0.234-0.382-0.454-0.588-0.66-2.655-2.652-6.934-2.955-9.949-0.569l-11.268,8.916c-0.071,0.057-0.11,0.088-0.148,0.119l-11.184,8.852c-3.248,2.57-3.797,7.287-1.227,10.535 6.244,7.89 9.684,12.235 9.684,22.829s-3.439,14.939-9.685,22.834c-8.076,10.208-19.137,24.188-19.137,50.019 0,25.832 11.061,39.812 19.141,50.022 6.242,7.89 9.681,12.235 9.681,22.827 0,10.593-3.439,14.939-9.685,22.832-8.076,10.208-19.137,24.188-19.137,50.02 0,25.833 11.058,39.809 19.133,50.013 1.48,1.871 3.672,2.847 5.886,2.847 1.63,0 3.271-0.528 4.648-1.618l22.603-17.883c1.56-1.234 2.565-3.038 2.796-5.014 0.23-1.977-0.334-3.963-1.568-5.523-6.239-7.885-9.676-12.229-9.676-22.821 0-10.594 3.439-14.939 9.685-22.833 8.075-10.211 19.135-24.191 19.135-50.022zm-30.901,40.714c-6.933,8.761-12.92,16.328-12.92,32.138 0,12.181 3.553,19.467 8.353,26.175l-10.849,8.584c-5.954-8.2-11.325-18.317-11.325-34.759 0-20.615 8.447-31.293 15.901-40.714 6.933-8.762 12.92-16.328 12.92-32.138 0-15.808-5.986-23.373-12.921-32.139-7.453-9.419-15.9-20.096-15.9-40.711 0-20.614 8.447-31.292 15.903-40.715 6.932-8.762 12.918-16.328 12.918-32.138 0-12.184-3.556-19.472-8.36-26.184l10.848-8.584c5.958,8.203 11.333,18.323 11.333,34.768 0,20.615-8.448,31.293-15.902,40.716-6.932,8.761-12.918,16.327-12.918,32.137 0,15.808 5.986,23.374 12.919,32.137 7.454,9.421 15.901,20.098 15.901,40.713s-8.447,31.292-15.901,40.714z"/>
    <path d="m384.167,271.424c0-10.593 3.439-14.939 9.685-22.833 8.075-10.208 19.136-24.188 19.136-50.019 0-25.832-11.062-39.813-19.139-50.021-6.243-7.891-9.682-12.237-9.682-22.829 0-10.593 3.438-14.939 9.683-22.831 8.076-10.209 19.138-24.189 19.138-50.021 0-25.834-11.063-39.813-19.141-50.021-0.19-0.241-0.394-0.467-0.606-0.679-2.656-2.636-6.922-2.931-9.931-0.551l-11.267,8.916c-0.067,0.054-0.103,0.081-0.137,0.109l-11.196,8.861c-3.248,2.57-3.797,7.287-1.227,10.535 6.244,7.89 9.684,12.236 9.684,22.829s-3.438,14.939-9.685,22.833c-8.076,10.208-19.137,24.188-19.137,50.02 0,25.832 11.061,39.812 19.142,50.024 6.241,7.889 9.68,12.234 9.68,22.825 0,10.592-3.439,14.938-9.685,22.831-8.076,10.208-19.137,24.188-19.137,50.021 0,25.833 11.058,39.809 19.132,50.013 1.48,1.871 3.673,2.847 5.887,2.847 1.63,0 3.271-0.528 4.648-1.618l22.603-17.883c1.561-1.234 2.565-3.038 2.796-5.014s-0.333-3.962-1.567-5.521c-6.239-7.887-9.677-12.231-9.677-22.823zm-6.647,26.174l-10.849,8.584c-5.954-8.2-11.325-18.317-11.325-34.759 0-20.616 8.447-31.293 15.901-40.716 6.933-8.761 12.92-16.327 12.92-32.136 0-15.807-5.985-23.372-12.921-32.138-7.453-9.42-15.9-20.096-15.9-40.712 0-20.615 8.447-31.292 15.903-40.716 6.932-8.762 12.918-16.328 12.918-32.137 0-12.184-3.556-19.472-8.36-26.184l10.848-8.584c5.958,8.203 11.333,18.323 11.333,34.768 0,20.615-8.448,31.293-15.902,40.716-6.932,8.762-12.918,16.328-12.918,32.137s5.986,23.375 12.919,32.137c7.453,9.421 15.901,20.098 15.901,40.713s-8.447,31.292-15.901,40.714c-6.932,8.762-12.919,16.328-12.919,32.138-0.001,12.182 3.552,19.467 8.352,26.175z"/>
    <path d="m36.911,176.072c-12.407,0-22.5,10.094-22.5,22.5s10.093,22.5 22.5,22.5 22.5-10.094 22.5-22.5-10.093-22.5-22.5-22.5zm0,30c-4.136,0-7.5-3.364-7.5-7.5s3.364-7.5 7.5-7.5 7.5,3.364 7.5,7.5-3.364,7.5-7.5,7.5z"/>
    <path d="m22.5,394.633c-12.407,0-22.5,10.094-22.5,22.5s10.093,22.5 22.5,22.5 22.5-10.093 22.5-22.5-10.093-22.5-22.5-22.5zm0,30c-4.136,0-7.5-3.364-7.5-7.5s3.364-7.5 7.5-7.5 7.5,3.364 7.5,7.5-3.364,7.5-7.5,7.5z"/>
    <path d="m164.167,321.779c-12.407,0-22.5,10.094-22.5,22.5s10.093,22.5 22.5,22.5 22.5-10.094 22.5-22.5-10.093-22.5-22.5-22.5zm0,30c-4.136,0-7.5-3.364-7.5-7.5s3.364-7.5 7.5-7.5 7.5,3.364 7.5,7.5-3.364,7.5-7.5,7.5z"/>
    <path d="m172.257,125.722c0-12.406-10.093-22.5-22.5-22.5s-22.5,10.094-22.5,22.5 10.093,22.5 22.5,22.5 22.5-10.093 22.5-22.5zm-30,0c0-4.136 3.364-7.5 7.5-7.5s7.5,3.364 7.5,7.5c0,4.136-3.364,7.5-7.5,7.5s-7.5-3.364-7.5-7.5z"/>
    <path d="m178.577,30.37c-12.407,0-22.5,10.094-22.5,22.5s10.093,22.5 22.5,22.5 22.5-10.094 22.5-22.5-10.093-22.5-22.5-22.5zm0,30c-4.136,0-7.5-3.364-7.5-7.5s3.364-7.5 7.5-7.5 7.5,3.364 7.5,7.5-3.364,7.5-7.5,7.5z"/>
    <path d="m291.423,249.15c-12.406,0-22.5,10.094-22.5,22.5s10.094,22.5 22.5,22.5 22.5-10.094 22.5-22.5-10.094-22.5-22.5-22.5zm0,30c-4.136,0-7.5-3.364-7.5-7.5s3.364-7.5 7.5-7.5 7.5,3.364 7.5,7.5-3.364,7.5-7.5,7.5z"/>
    <path d="m291.423,394.633c-12.406,0-22.5,10.094-22.5,22.5s10.094,22.5 22.5,22.5 22.5-10.094 22.5-22.5-10.094-22.5-22.5-22.5zm0,30c-4.136,0-7.5-3.364-7.5-7.5s3.364-7.5 7.5-7.5 7.5,3.364 7.5,7.5-3.364,7.5-7.5,7.5z"/>
    <path d="m320.244,176.072c-12.406,0-22.5,10.094-22.5,22.5s10.094,22.5 22.5,22.5 22.5-10.094 22.5-22.5-10.093-22.5-22.5-22.5zm0,30c-4.136,0-7.5-3.364-7.5-7.5s3.364-7.5 7.5-7.5 7.5,3.364 7.5,7.5-3.364,7.5-7.5,7.5z"/>
    <path d="m418.679,394.633c-12.406,0-22.5,10.094-22.5,22.5s10.094,22.5 22.5,22.5 22.5-10.094 22.5-22.5-10.094-22.5-22.5-22.5zm0,30c-4.136,0-7.5-3.364-7.5-7.5s3.364-7.5 7.5-7.5 7.5,3.364 7.5,7.5-3.364,7.5-7.5,7.5z"/>
    <path d="m447.5,321.779c-12.406,0-22.5,10.094-22.5,22.5s10.094,22.5 22.5,22.5 22.5-10.094 22.5-22.5-10.093-22.5-22.5-22.5zm0,30c-4.136,0-7.5-3.364-7.5-7.5s3.364-7.5 7.5-7.5 7.5,3.364 7.5,7.5-3.364,7.5-7.5,7.5z"/>
    <path d="m433.09,148.222c12.406,0 22.5-10.094 22.5-22.5s-10.094-22.5-22.5-22.5-22.5,10.094-22.5,22.5 10.094,22.5 22.5,22.5zm0-30c4.136,0 7.5,3.364 7.5,7.5 0,4.136-3.364,7.5-7.5,7.5s-7.5-3.364-7.5-7.5c0-4.135 3.364-7.5 7.5-7.5z"/>
  </g>
</svg>
