<?xml version='1.0' encoding='iso-8859-1'?>
<!DOCTYPE svg PUBLIC '-//W3C//DTD SVG 1.1//EN' 'http://www.w3.org/Graphics/SVG/1.1/DTD/svg11.dtd'>
<svg version="1.1" xmlns="http://www.w3.org/2000/svg" viewBox="0 0 306.571 306.571" xmlns:xlink="http://www.w3.org/1999/xlink" enable-background="new 0 0 306.571 306.571">
  <g>
    <circle cx="245.332" cy="31.964" r="25.907"/>
    <circle cx="92.943" cy="32.958" r="27.59"/>
    <path d="m147.18,97.818l-34.644,12.496c0,0-7.675-18.343-10.43-24.886-2.319-5.507-5.498-10.875-11.5-13.167l-31.05-11.856c-9.616-3.672-20.388,1.147-24.06,10.763l-33.96,88.939c-2.368,4.846-2.043,10.805 1.365,15.458l31.407,42.882-32.525,60.673c-3.914,7.301-1.169,16.393 6.133,20.307 2.256,1.21 4.682,1.783 7.074,1.783 5.35,0 10.528-2.87 13.232-7.916l36.99-69c2.729-5.089 2.294-11.292-1.118-15.95l-22.176-30.277c-0.881-1.203-0.022-2.897 1.469-2.897 0.493,0 0.966,0.2 1.309,0.555l40.689,42.058-25.177,62.38c-3.101,7.684 0.297,16.683 7.941,19.881 1.896,0.793 3.86,1.168 5.79,1.168 5.936,0 11.557-3.548 13.915-9.39l28.655-71c2.039-5.055 1.178-10.817-2.253-15.054l-37.156-45.89 .038-.099-10.676-2.744c-7.875-2.024-14.191-7.775-16.946-15.412-0.3-0.833-0.619-2.237-0.711-3.117l-5.305-50.672 17.256,49.581c1.377,3.954 4.639,6.956 8.694,7.998l48.369,12.432c1.391,0.358 2.786,0.466 4.141,0.354 5.319-0.439 10-4.282 11.195-9.849 1.422-6.621-2.932-13.13-9.491-14.815l-41.499-10.666-15.627-44.901 23.05,34.417 37.443,9.624c4.04,1.039 7.661,3.048 10.624,5.822l18.398-6.636c6.568-2.369 9.935-9.668 7.436-16.22-2.454-6.43-9.835-9.492-16.309-7.157z"/>
    <path d="m305.436,279.101l-26.863-60.661v-134.312c0-9.665-7.835-17.501-17.501-17.501h-31.209c-3.921,0-7.529,1.305-10.446,3.484l-26.706-5.641-20.479-42.127c-3.009-6.19-10.433-9.145-16.676-6.25-6.361,2.95-9.042,10.528-5.989,16.807l23.333,48c1.688,3.471 4.883,5.968 8.659,6.766l30.803,6.507v29.498l11.179-2.873 23.05-34.417-15.627,44.899-41.5,10.667c-6.559,1.686-10.912,8.195-9.491,14.815 1.195,5.567 5.876,9.41 11.195,9.849 1.355,0.112 2.75,0.003 4.141-0.354l48.369-12.432c4.055-1.042 7.317-4.044 8.694-7.998l17.256-49.58-5.305,50.669c-0.092,0.881-0.411,2.285-0.711,3.118-2.755,7.637-9.071,13.389-16.947,15.413l-35.337,9.082-13.048,35.575c-0.971,2.647-1.176,5.514-0.592,8.272l14.728,69.546c1.495,7.058 7.724,11.897 14.66,11.896 1.029,0 2.075-0.106 3.122-0.328 8.104-1.717 13.283-9.678 11.567-17.782l-13.834-65.324 14.84-40.458c0.442-1.206 1.59-2.007 2.874-2.007 1.642,0 2.991,1.289 3.058,2.93 0.428,10.481 1.877,45.488 1.877,45.488 0.073,1.748 0.452,3.47 1.118,5.087l26,63.105c2.386,5.791 7.977,9.29 13.875,9.29 1.903,0 3.839-0.365 5.708-1.135 7.66-3.156 11.31-11.924 8.155-19.583z"/>
  </g>
</svg>
