<?xml version='1.0' encoding='iso-8859-1'?>
<!DOCTYPE svg PUBLIC '-//W3C//DTD SVG 1.1//EN' 'http://www.w3.org/Graphics/SVG/1.1/DTD/svg11.dtd'>
<svg version="1.1" xmlns="http://www.w3.org/2000/svg" viewBox="0 0 300.336 300.336" xmlns:xlink="http://www.w3.org/1999/xlink" enable-background="new 0 0 300.336 300.336">
  <g>
    <path d="m70.327,28.829l52.911,22.282 4.683,9.078 30.09-7.108-10.604-20.558c-1.611-3.125-4.27-5.584-7.51-6.948l-57.927-24.395c-7.634-3.217-16.43,0.368-19.646,8.003-3.215,7.635 0.367,16.431 8.003,19.646z"/>
    <path d="m260.77,22.655c-2.966-3.44-7.155-5.206-11.368-5.206h-0.004c-3.468,0-6.95,1.197-9.783,3.639l-40.023,34.501-68.966,16.291c-6.709,1.585-11.276,7.449-11.528,14.019l-.029-.024v81.093l-31.914-4.247c-4.321-0.573-8.623,1.14-11.364,4.524l-37.079,45.79c-4.344,5.365-3.517,13.236 1.849,17.581 2.314,1.874 5.096,2.785 7.858,2.785 3.642,0 7.252-1.583 9.723-4.634l32.666-40.341 40.15,5.343h38.734c10.677,5.538 18.408,15.997 20.147,28.362l4.649,4.66v61.044c0,6.903 5.597,12.5 12.5,12.5s12.5-5.597 12.5-12.5v-66.213c0-3.311-1.313-6.485-3.65-8.828l-30.558-30.63v-62.554-17.484-1.751l-47.755,.703 72.533-17.136c2.344-0.555 4.521-1.664 6.345-3.237l42.801-36.895c6.273-5.409 6.976-14.88 1.566-21.155z"/>
    <circle cx="152.31" cy="227.434" r="25.907"/>
  </g>
</svg>
