<?xml version="1.0" encoding="iso-8859-1"?>
<!-- Generator: Adobe Illustrator 19.1.0, SVG Export Plug-In . SVG Version: 6.00 Build 0)  -->
<svg version="1.1" id="Capa_1" xmlns="http://www.w3.org/2000/svg" xmlns:xlink="http://www.w3.org/1999/xlink" x="0px" y="0px"
	 viewBox="0 0 112 112" style="enable-background:new 0 0 112 112;" xml:space="preserve">
<g>
	<g>
		<g>
			<path d="M0.959,110.768c-0.249,0-0.494-0.096-0.678-0.281c-0.287-0.287-0.362-0.723-0.188-1.09L31.682,43.16
				c0.229-0.477,0.8-0.68,1.277-0.452c0.478,0.227,0.68,0.799,0.452,1.277L2.987,107.781l65.167-31.078
				c0.478-0.228,1.049-0.025,1.277,0.452c0.227,0.478,0.025,1.05-0.452,1.277L1.371,110.675
				C1.239,110.737,1.098,110.768,0.959,110.768z"/>
		</g>
		<g>
			<path d="M65.313,79.237c-5.66,0-14.118-4.802-21.549-12.232c-10.295-10.296-14.938-21.782-10.57-26.149
				c1.103-1.104,2.651-1.663,4.602-1.663c5.659,0,14.117,4.802,21.548,12.233c4.808,4.807,8.581,10.095,10.624,14.888
				c2.16,5.067,2.141,9.067-0.054,11.261C68.811,78.678,67.262,79.237,65.313,79.237z M37.795,41.108
				c-1.424,0-2.516,0.371-3.247,1.102c-3.107,3.108,0.399,13.268,10.57,23.44c6.981,6.981,15.096,11.671,20.194,11.671
				c1.423,0,2.515-0.37,3.246-1.101c1.581-1.582,1.452-4.919-0.354-9.156c-1.95-4.574-5.578-9.647-10.216-14.285
				C51.008,45.798,42.893,41.108,37.795,41.108z"/>
		</g>
		<g>
			<path d="M11.996,99.24c-0.378,0-0.736-0.225-0.888-0.597c-0.503-1.236-0.976-2.514-1.406-3.797
				c-0.318-0.95-0.618-1.921-0.892-2.884c-0.145-0.509,0.151-1.038,0.66-1.183c0.509-0.148,1.038,0.151,1.183,0.66
				c0.266,0.935,0.557,1.878,0.866,2.8c0.417,1.245,0.876,2.485,1.364,3.683c0.199,0.49-0.036,1.049-0.526,1.248
				C12.239,99.217,12.116,99.24,11.996,99.24z"/>
		</g>
		<g>
			<path d="M25.698,98.867c-0.315,0-0.623-0.155-0.807-0.44c-2.42-3.763-4.444-8.054-6.017-12.753
				c-0.168-0.501,0.102-1.044,0.604-1.212c0.501-0.169,1.044,0.102,1.212,0.604c1.523,4.549,3.479,8.695,5.813,12.325
				c0.286,0.445,0.157,1.037-0.288,1.324C26.055,98.818,25.875,98.867,25.698,98.867z"/>
		</g>
		<g>
			<path d="M18.387,81.556c-0.429,0-0.819-0.29-0.928-0.725c-0.759-3.03-1.011-4.974-1.021-5.055
				c-0.066-0.525,0.304-1.004,0.829-1.071c0.52-0.058,1.004,0.305,1.072,0.829c0.002,0.02,0.25,1.922,0.979,4.832
				c0.128,0.514-0.183,1.034-0.696,1.162C18.543,81.547,18.464,81.556,18.387,81.556z"/>
		</g>
		<g>
			<path d="M38.493,92.868c-0.236,0-0.472-0.087-0.658-0.261c-1.385-1.307-2.712-2.76-3.944-4.318
				c-0.328-0.415-0.257-1.018,0.158-1.345c0.414-0.328,1.016-0.259,1.346,0.157c1.174,1.486,2.438,2.869,3.756,4.112
				c0.384,0.363,0.402,0.969,0.039,1.355C39.001,92.767,38.747,92.868,38.493,92.868z"/>
		</g>
		<g>
			<path d="M32.548,85.766c-0.31,0-0.613-0.15-0.798-0.427c-2.616-3.922-4.789-8.439-6.456-13.423
				c-0.168-0.501,0.102-1.045,0.604-1.212c0.504-0.168,1.044,0.102,1.212,0.604c1.614,4.823,3.711,9.186,6.234,12.969
				c0.293,0.44,0.174,1.035-0.266,1.328C32.915,85.713,32.731,85.766,32.548,85.766z"/>
		</g>
		<g>
			<path d="M24.807,67.799c-0.429,0-0.819-0.29-0.928-0.725c-0.76-3.03-1.011-4.974-1.021-5.055
				c-0.066-0.525,0.305-1.004,0.829-1.071c0.522-0.058,1.004,0.305,1.072,0.83c0.002,0.019,0.249,1.922,0.979,4.831
				c0.129,0.514-0.183,1.034-0.696,1.162C24.963,67.79,24.884,67.799,24.807,67.799z"/>
		</g>
		<g>
			<path d="M66.95,39.151c-0.245,0-0.48-0.094-0.658-0.262l-5.547-5.247c-0.384-0.364-0.401-0.97-0.038-1.355l5.247-5.548
				c0.174-0.184,0.415-0.292,0.669-0.299c0.248,0,0.5,0.087,0.685,0.262l5.547,5.247c0.384,0.364,0.401,0.97,0.038,1.355
				l-5.247,5.548c-0.174,0.184-0.415,0.292-0.669,0.299C66.968,39.151,66.959,39.151,66.95,39.151z M62.757,32.909l4.155,3.93
				l3.931-4.156l-4.155-3.93L62.757,32.909z"/>
		</g>
		<g>
			<path d="M92.827,31.188c-0.236,0-0.473-0.087-0.658-0.262l-5.547-5.247c-0.384-0.364-0.401-0.97-0.038-1.355l5.247-5.547
				c0.364-0.385,0.97-0.4,1.354-0.037l5.547,5.247c0.384,0.364,0.401,0.97,0.038,1.355l-5.247,5.547
				C93.334,31.088,93.081,31.188,92.827,31.188z M88.633,24.946l4.155,3.93l3.931-4.155l-4.155-3.93L88.633,24.946z"/>
		</g>
		<g>
			<path d="M81.591,18.395c-1.642,0-2.978-1.336-2.978-2.978s1.336-2.978,2.978-2.978s2.977,1.336,2.977,2.978
				S83.233,18.395,81.591,18.395z M81.591,14.355c-0.586,0-1.062,0.476-1.062,1.062c0,0.586,0.476,1.062,1.062,1.062
				c0.585,0,1.061-0.476,1.061-1.062C82.652,14.831,82.176,14.355,81.591,14.355z"/>
		</g>
		<g>
			<path d="M85.26,43.158c-1.642,0-2.978-1.336-2.978-2.978c0-1.642,1.336-2.978,2.978-2.978s2.978,1.336,2.978,2.978
				C88.237,41.822,86.901,43.158,85.26,43.158z M85.26,39.118c-0.586,0-1.062,0.476-1.062,1.062s0.476,1.062,1.062,1.062
				s1.062-0.476,1.062-1.062S85.845,39.118,85.26,39.118z"/>
		</g>
		<g>
			<path d="M108.82,68.552c-1.642,0-2.978-1.336-2.978-2.978s1.336-2.978,2.978-2.978s2.978,1.336,2.978,2.978
				S110.461,68.552,108.82,68.552z M108.82,64.513c-0.586,0-1.062,0.476-1.062,1.062s0.476,1.062,1.062,1.062
				s1.062-0.476,1.062-1.062S109.405,64.513,108.82,64.513z"/>
		</g>
		<g>
			<path d="M77.985,62.977c-0.181,0-0.365-0.051-0.527-0.159c-0.442-0.292-0.563-0.886-0.271-1.327
				c0.27-0.409,5.52-8.214,13.94-11.257c-0.009-0.063-0.018-0.126-0.027-0.19c-0.021-0.428-0.26-8.405,6.121-13.432
				c0.416-0.327,1.018-0.256,1.345,0.159c0.327,0.416,0.256,1.018-0.16,1.345c-5.062,3.989-5.388,10.272-5.401,11.536
				c1.517-0.391,3.123-0.617,4.808-0.617c0.088-0.008,2.744-0.012,4.35,1.573c0.793,0.783,1.196,1.793,1.199,3.002
				c0.004,1.635-0.613,3.024-1.784,4.018c-1.334,1.132-3.311,1.646-5.159,1.335c-2.406-0.403-4.067-2.685-4.952-6.792
				c-7.698,2.96-12.621,10.284-12.682,10.376C78.601,62.826,78.296,62.977,77.985,62.977z M93.29,51.571
				c0.676,3.324,1.856,5.235,3.446,5.502c1.288,0.216,2.701-0.14,3.603-0.906c0.738-0.626,1.11-1.485,1.108-2.553
				c-0.001-0.689-0.207-1.225-0.629-1.642c-1.027-1.014-2.977-1.013-2.994-1.021C96.239,50.951,94.724,51.179,93.29,51.571z"/>
		</g>
		<g>
			<path d="M104.443,87.237c-1.268,0-2.409-0.317-3.249-0.725c-1.218-0.594-2.176-1.309-2.871-2.139
				c-2.334-0.138-4.254-1.069-5.488-1.668c-2.189-1.061-3.86-2.238-5.001-3.517c-1.095,0.07-2.154-0.093-3.172-0.476
				c-3.849-1.451-5.649-5.595-5.724-5.771c-0.207-0.486,0.02-1.048,0.506-1.255c0.483-0.208,1.048,0.018,1.257,0.503
				c0.015,0.036,1.569,3.581,4.648,4.734c0.386,0.145,0.783,0.246,1.188,0.304c-0.144-0.322-0.259-0.649-0.344-0.982
				c-0.564-2.191,0.382-3.833,0.6-4.171c0.73-1.341,1.689-2.114,2.852-2.298c1.913-0.301,3.505,1.167,3.68,1.335
				c0.028,0.026,0.053,0.055,0.078,0.084c0.873,1.069,1.21,2.196,1,3.347c-0.398,2.182-2.693,3.535-2.79,3.591
				c-0.506,0.243-1.004,0.445-1.495,0.605c0.915,0.787,2.106,1.541,3.554,2.243c1.082,0.525,2.259,1.043,3.533,1.309
				c-0.708-2.457,0.538-4.616,0.592-4.707c0.714-1.333,1.681-2.12,2.855-2.305c1.916-0.294,3.505,1.167,3.68,1.336
				c0.028,0.027,0.053,0.055,0.078,0.084c0.873,1.069,1.21,2.196,1,3.347c-0.398,2.182-2.692,3.534-2.79,3.59
				c-0.041,0.023-0.084,0.044-0.128,0.062c-0.523,0.208-1.037,0.362-1.538,0.471c0.322,0.22,0.681,0.427,1.078,0.62
				c0.826,0.399,5.098,2.113,8.17-3.546c0.252-0.465,0.834-0.637,1.298-0.385c0.465,0.253,0.638,0.834,0.385,1.298
				C109.759,86.075,106.869,87.237,104.443,87.237z M101.165,77.155c-0.075,0-0.149,0.006-0.222,0.018
				c-0.548,0.089-1.044,0.543-1.477,1.349c-0.025,0.045-0.916,1.626-0.403,3.298c0.068,0.222,0.158,0.436,0.269,0.644
				c0.763-0.041,1.557-0.2,2.381-0.518c0.488-0.304,1.624-1.204,1.811-2.248c0.101-0.565-0.082-1.134-0.56-1.736
				C102.669,77.695,101.902,77.155,101.165,77.155z M90.159,71.651c-0.074,0-0.149,0.006-0.222,0.018
				c-0.548,0.089-1.044,0.543-1.477,1.349c-0.019,0.035-0.04,0.068-0.062,0.101c-0.026,0.038-0.754,1.139-0.339,2.688
				c0.121,0.451,0.328,0.898,0.619,1.34c0.661-0.136,1.342-0.37,2.04-0.705c0.385-0.231,1.607-1.162,1.801-2.248
				c0.101-0.565-0.082-1.134-0.56-1.736C91.663,72.192,90.896,71.651,90.159,71.651z"/>
		</g>
		<g>
			<path d="M45.822,7.389c-1.642,0-2.978-1.336-2.978-2.978s1.336-2.978,2.978-2.978c1.642,0,2.977,1.336,2.977,2.978
				S47.464,7.389,45.822,7.389z M45.822,3.349c-0.586,0-1.062,0.476-1.062,1.062s0.476,1.062,1.062,1.062
				c0.585,0,1.061-0.476,1.061-1.062S46.407,3.349,45.822,3.349z"/>
		</g>
		<g>
			<path d="M49.379,36.202c-0.311,0-0.615-0.151-0.799-0.429c-0.292-0.441-0.171-1.036,0.27-1.327
				c0.092-0.061,7.419-5,10.377-12.689c-4.128-0.893-6.391-2.55-6.792-4.946c-0.309-1.847,0.202-3.573,1.334-4.908
				c0.991-1.167,2.376-1.534,4.005-1.534c0.005,0,0.009,0,0.014,0c1.209,0,2.218,0.155,3.001,0.948
				c1.584,1.605,1.574,4.125,1.573,4.236c0,1.684-0.226,3.226-0.617,4.742c1.01-0.011,7.484-0.296,11.536-5.439
				c0.328-0.414,0.93-0.501,1.345-0.175c0.416,0.327,0.487,0.921,0.16,1.337c-5.028,6.382-12.998,6.137-13.341,6.124
				c-0.093-0.012-0.186-0.027-0.278-0.04c-3.038,8.419-10.85,13.672-11.259,13.942C49.744,36.152,49.56,36.202,49.379,36.202z
				 M57.773,12.369c-1.064,0-1.92,0.081-2.544,0.816c-0.766,0.902-1.121,2.17-0.906,3.456c0.265,1.581,2.156,2.684,5.502,3.366
				c0.391-1.428,0.619-2.975,0.619-4.553c0-0.027-0.002-1.705-1.025-2.735c-0.415-0.418-0.951-0.35-1.637-0.35
				C57.78,12.369,57.777,12.369,57.773,12.369z"/>
		</g>
		<g>
			<path d="M38.83,34.368c-0.125,0-0.252-0.024-0.375-0.077c-0.175-0.075-4.321-1.875-5.771-5.724
				c-0.384-1.02-0.544-2.08-0.478-3.173c-1.279-1.141-2.454-2.811-3.515-4.998c-0.598-1.234-1.53-3.154-1.667-5.488
				c-0.83-0.694-1.545-1.653-2.138-2.868c-1.193-2.448-1.618-7.454,4.355-10.693c0.464-0.252,1.046-0.08,1.298,0.385
				c0.253,0.465,0.08,1.047-0.385,1.298c-5.667,3.073-3.948,7.343-3.546,8.169c0.193,0.397,0.4,0.757,0.619,1.079
				c0.11-0.501,0.264-1.015,0.471-1.538c0.017-0.044,0.038-0.087,0.062-0.127c0.057-0.098,1.408-2.392,3.591-2.791
				c1.153-0.21,2.278,0.127,3.347,1c0.029,0.024,0.058,0.05,0.084,0.078c0.168,0.175,1.637,1.765,1.335,3.68
				c-0.185,1.174-0.971,2.14-2.337,2.873c-0.058,0.035-2.219,1.28-4.675,0.573c0.266,1.274,0.784,2.451,1.309,3.533
				c0.701,1.445,1.453,2.635,2.239,3.548c0.153-0.47,0.345-0.944,0.575-1.423c0.091-0.164,1.443-2.458,3.625-2.856
				c1.152-0.209,2.278,0.126,3.347,1c0.029,0.024,0.058,0.05,0.084,0.078c0.168,0.175,1.637,1.765,1.335,3.68
				c-0.183,1.163-0.957,2.122-2.298,2.851c-0.339,0.219-1.978,1.164-4.171,0.6c-0.333-0.085-0.66-0.2-0.983-0.344
				c0.059,0.409,0.161,0.808,0.308,1.198c1.165,3.091,4.693,4.622,4.729,4.637c0.486,0.207,0.713,0.769,0.507,1.256
				C39.557,34.149,39.203,34.368,38.83,34.368z M34.245,24.55c0.456,0.3,0.918,0.513,1.384,0.632
				c1.537,0.394,2.638-0.341,2.649-0.35c0.032-0.022,0.066-0.044,0.101-0.063c0.806-0.431,1.26-0.928,1.349-1.476
				c0.13-0.797-0.493-1.691-0.788-2.022c-0.602-0.478-1.173-0.661-1.735-0.559c-1.087,0.195-2.017,1.415-2.284,1.869
				C34.601,23.248,34.376,23.906,34.245,24.55z M28.934,13.898c0.213,0.115,0.434,0.207,0.661,0.275
				c1.663,0.5,3.233-0.381,3.248-0.39c0.839-0.45,1.293-0.947,1.382-1.495c0.13-0.797-0.493-1.691-0.788-2.022
				c-0.602-0.478-1.173-0.661-1.735-0.559c-1.043,0.186-1.943,1.32-2.249,1.811C29.134,12.342,28.975,13.135,28.934,13.898z"/>
		</g>
	</g>
</g>
<g>
</g>
<g>
</g>
<g>
</g>
<g>
</g>
<g>
</g>
<g>
</g>
<g>
</g>
<g>
</g>
<g>
</g>
<g>
</g>
<g>
</g>
<g>
</g>
<g>
</g>
<g>
</g>
<g>
</g>
</svg>
